PathFileType	4	(X/Y/Z)	c:\Git\powerlifing_model_clean\simulations\HC835B\Session1\HC835B_OGW_0005\marker_experimental.trc
DataRate	CameraRate	NumFrames	NumMarkers	Units	OrigDataRate	OrigDataStartFrame	OrigNumFrames
240.000000	240.000000	5	38	mm	240.000000	0	418
Frame#	Time	RPSI			LPSI			RASI			LASI			RTH1			RTH2			RTH3			RTH4			RSK1			RSK2			RSK3			RSK4			RCAL1			RCAL2			RCAL3			RST			RPT			RTN			RFMB			RSMB			RVMB			RFMH			RSMH			RVMH			RPM			LTH1			LTH2			LTH3			LTH4			LSK1			LSK2			LSK3			LSK4			LCAL1			LCAL2			LCAL3			LFMH			LVMH			
		X1	Y1	Z1	X2	Y2	Z2	X3	Y3	Z3	X4	Y4	Z4	X5	Y5	Z5	X6	Y6	Z6	X7	Y7	Z7	X8	Y8	Z8	X9	Y9	Z9	X10	Y10	Z10	X11	Y11	Z11	X12	Y12	Z12	X13	Y13	Z13	X14	Y14	Z14	X15	Y15	Z15	X16	Y16	Z16	X17	Y17	Z17	X18	Y18	Z18	X19	Y19	Z19	X20	Y20	Z20	X21	Y21	Z21	X22	Y22	Z22	X23	Y23	Z23	X24	Y24	Z24	X25	Y25	Z25	X26	Y26	Z26	X27	Y27	Z27	X28	Y28	Z28	X29	Y29	Z29	X30	Y30	Z30	X31	Y31	Z31	X32	Y32	Z32	X33	Y33	Z33	X34	Y34	Z34	X35	Y35	Z35	X36	Y36	Z36	X37	Y37	Z37	X38	Y38	Z38	

1	0	484.7297363281251	1099.455444335938	-2578.721435546875	594.6911010742189	1105.702392578125	-2580.03369140625	433.9684143066407	1064.823486328125	-2369.435791015625	677.5278320312501	1057.189453125	-2375.479736328125	354.0049438476563	798.696228027344	-2355.43017578125	361.6545104980469	811.900817871094	-2296.6572265625	361.6932678222657	733.3936767578126	-2302.501220703125	379.6922912597657	744.3486938476564	-2247.2919921875	400.5316772460939	293.7416076660157	-2216.716552734375	388.5380859375001	301.0255126953126	-2155.220703125	401.4241943359376	246.832748413086	-2181.20361328125	399.952117919922	256.6321105957032	-2119.992919921875	466.1477050781251	87.38360595703126	-2169.126953125	498.8215942382814	60.09603118896486	-2143.180908203125	437.2487792968751	49.22782135009767	-2156.152587890625	499.2505798339845	101.1553802490235	-2086.899658203125	401.479949951172	76.06423950195314	-2109.212646484375	470.3650512695314	133.2751159667969	-2042.76953125	463.647918701172	127.6329116821289	-2007.500122070313	412.3588867187501	146.2451934814453	-2013.9453125	385.5143127441407	65.14182281494142	-2060.464111328125	459.639129638672	116.6731948852539	-1946.6533203125	403.2642211914064	130.3149108886719	-1948.428466796875	352.8995361328126	78.16687774658205	-1987.896362304688	402.6344604492189	143.7491149902344	-1893.489379882813	731.9410400390626	796.670104980469	-2524.786865234375	721.2317504882814	771.2674560546877	-2470.49951171875	718.8008422851564	711.8538208007814	-2526.057861328125	693.5471801757814	689.9442749023439	-2474.752685546875	670.5328369140626	293.7673950195313	-2734.213134765625	673.1132202148439	262.6261291503907	-2690.231689453125	664.5504760742189	236.590316772461	-2732.189453125	653.6306762695314	207.7754974365235	-2684.653076171875	603.2266845703126	97.89954376220706	-2825.695556640625	633.2852172851564	61.37716674804689	-2829.7646484375	575.8187866210939	57.99046707153322	-2824.609130859375	584.5704345703126	47.82705688476563	-2599.323486328125	686.6629028320314	25.66494750976563	-2646.120849609375	
2	0.004166666666666667	484.2083129882814	1097.759399414063	-2571.166015625	594.0581054687501	1104.282836914063	-2572.748779296875	433.7391662597657	1063.150512695313	-2361.716796875	677.5889892578126	1055.456787109375	-2368.267333984375	353.9694824218751	795.9122314453127	-2349.674560546875	362.2384948730469	808.692565917969	-2290.734130859375	362.0172729492188	730.2298583984376	-2297.16845703125	380.7086181640626	740.7174072265626	-2242.10546875	400.694305419922	292.0017395019532	-2203.67236328125	388.864471435547	300.7829895019532	-2142.401611328125	401.6053466796876	245.9266662597657	-2167.194580078125	401.4617614746095	255.9122772216797	-2107.020751953125	466.0075073242189	85.94007873535158	-2151.081787109375	498.6800842285157	59.35305786132814	-2124.253173828125	437.1058349609376	48.71051406860353	-2137.1806640625	499.0780334472657	101.9414367675782	-2068.919677734375	401.3171691894532	76.76272583007814	-2091.096435546875	470.415252685547	135.3154907226563	-2025.813598632813	463.6343994140626	130.7336120605469	-1990.510986328125	412.4501953125001	149.3836212158203	-1997.657592773438	385.2518920898439	67.54613494873048	-2041.99560546875	459.3598022460939	121.4416580200196	-1929.408203125	403.0711059570314	135.2212829589844	-1931.637817382813	352.5026855468751	82.48696136474611	-1969.994262695313	402.4510192871095	150.2692413330078	-1877.1064453125	731.8116455078126	796.1290283203127	-2519.216796875	721.4741210937501	770.499694824219	-2465.045166015625	718.6588745117189	711.3093872070314	-2520.872314453125	693.9452514648439	689.0445556640626	-2469.545654296875	670.3948974609376	294.6780395507813	-2731.951416015625	673.2013549804689	263.0476074218751	-2688.220458984375	664.5163574218751	237.3802490234376	-2730.392822265625	653.7812500000001	208.1111297607422	-2683.0791015625	603.3585815429689	99.41501617431643	-2825.15625	633.2816162109376	62.78612518310548	-2829.302734375	575.8221435546876	59.427791595459	-2824.2490234375	584.6806640625001	47.78092193603516	-2599.0166015625	686.7114868164064	25.65086746215821	-2646.082275390625	
3	0.008333333333333333	483.7163696289064	1096.011108398438	-2563.56298828125	593.4400024414064	1102.763793945313	-2565.4033203125	433.4657287597657	1061.384399414063	-2353.789306640625	677.7453002929689	1053.958862304688	-2361.19921875	353.7099609375001	793.2471923828127	-2343.7451171875	362.8164062500001	805.576354980469	-2284.726318359375	362.1076660156251	727.1303710937501	-2291.761962890625	381.6703491210938	737.1286010742189	-2236.947998046875	400.915740966797	290.4041442871094	-2191.121826171875	389.0092163085939	300.8624877929688	-2129.608642578125	401.8756103515626	245.1861724853516	-2153.427001953125	400.0282287597657	258.1661987304688	-2092.372802734375	466.5461730957032	85.35947418212892	-2133.414306640625	498.8529357910157	59.06016540527345	-2106.03955078125	437.074676513672	48.19216156005861	-2118.7255859375	497.057586669922	101.2353210449219	-2049.33349609375	401.457000732422	77.97521209716798	-2073.447509765625	471.3337402343751	138.1231231689453	-2009.081176757813	463.4856262207032	133.633529663086	-1974.315307617188	412.6903381347657	152.525863647461	-1982.039428710938	385.1689453125001	69.74836730957033	-2024.26171875	459.3332824707032	126.1220321655274	-1912.8310546875	403.0300598144532	140.1072387695313	-1915.500366210938	352.4664611816407	86.88304901123048	-1952.618408203125	402.4608764648439	156.6097259521485	-1861.44775390625	731.7393798828126	795.6198730468752	-2513.587890625	721.6691894531251	769.5817871093752	-2459.447021484375	718.8303833007814	710.8581542968751	-2515.58642578125	694.3115844726564	688.1998901367189	-2464.178466796875	670.4318237304689	295.5026855468751	-2729.562744140625	673.8402099609376	263.7937011718751	-2686.268798828125	664.5537719726564	238.175521850586	-2728.524658203125	653.9467163085939	208.5450592041016	-2681.4619140625	603.3286132812501	100.7338485717774	-2824.3330078125	633.2338867187501	64.1466522216797	-2828.845458984375	575.8146362304689	60.86745071411134	-2823.73681640625	584.9649047851564	47.85937500000001	-2598.62548828125	686.7391967773439	25.62844467163087	-2645.966064453125	
4	0.0125	483.2585449218751	1094.272705078125	-2555.941650390625	592.8755493164064	1101.194702148438	-2558.02392578125	433.4429626464845	1059.653076171875	-2346.039794921875	678.6688842773439	1052.128051757813	-2355.1943359375	353.1634216308594	790.627624511719	-2337.678466796875	363.2592773437501	802.5103759765627	-2278.61865234375	361.7194519042969	724.1494140625001	-2286.227294921875	382.4534606933594	733.5688476562501	-2231.712158203125	401.0386352539064	288.7568054199219	-2178.80517578125	389.316864013672	300.7587890625001	-2117.34375	402.1886291503907	244.3595275878907	-2140.15771484375	403.3141174316407	256.4260864257813	-2081.10107421875	467.0352172851564	84.88706970214845	-2116.6357421875	499.155487060547	59.028133392334	-2088.411865234375	437.4430541992189	48.23373031616212	-2101.18212890625	497.3684692382814	102.5157852172852	-2032.737548828125	401.6906738281251	79.39175415039064	-2056.87158203125	471.7069091796876	140.4179077148438	-1993.421142578125	463.7418823242189	136.7084350585938	-1958.48388671875	412.9934692382814	155.5948333740235	-1966.82470703125	385.4032592773439	71.93149566650392	-2007.10302734375	459.539520263672	130.7116394042969	-1896.958251953125	403.2595520019532	144.6658020019532	-1899.975463867188	352.6575317382813	90.63878631591798	-1935.976806640625	402.7261962890626	162.5811309814453	-1846.376220703125	731.4840698242189	794.9833984375002	-2507.759033203125	721.9191894531251	768.795349121094	-2453.7421875	718.7106323242189	710.2925415039064	-2510.152587890625	694.7074584960939	687.3625488281251	-2458.763671875	670.4218139648439	296.3451538085938	-2727.064453125	673.5144653320314	264.0268554687501	-2684.03369140625	664.6558227539064	239.0645294189454	-2726.576171875	654.1964111328126	209.0060729980469	-2679.793701171875	603.5480346679689	102.314453125	-2823.609619140625	633.3541870117189	65.7051239013672	-2828.24267578125	575.9544677734376	62.51947402954103	-2823.295654296875	585.1395874023439	47.83477783203126	-2598.32080078125	686.8249511718751	25.57603263854981	-2645.866943359375	
5	0.01666666666666667	482.8042602539064	1092.560546875	-2548.307861328125	592.3179321289064	1099.6357421875	-2550.61669921875	433.410369873047	1058.062133789063	-2338.20361328125	678.7374267578126	1050.68896484375	-2347.790283203125	352.4472045898438	788.2080688476565	-2331.47509765625	363.5679321289063	799.586120605469	-2272.377685546875	361.3409118652344	721.2536010742189	-2280.578857421875	383.0871276855469	730.1403198242189	-2226.33740234375	401.1858215332032	287.1964721679688	-2166.973876953125	389.862274169922	300.3073730468751	-2105.8154296875	402.514862060547	243.5055236816407	-2127.403564453125	403.3982238769532	257.6763916015626	-2067.9130859375	467.6732482910157	84.21511840820314	-2100.141357421875	499.8469543457032	59.11105346679689	-2071.440185546875	438.2498168945314	48.27364349365236	-2084.033447265625	497.9767456054689	104.0060577392578	-2016.828857421875	402.3903808593751	79.97592163085939	-2040.27880859375	472.243621826172	142.567611694336	-1978.221923828125	464.2961730957032	139.9440155029297	-1943.332153320313	413.416473388672	158.3818969726563	-1952.179077148438	385.9426269531251	73.86288452148439	-1990.543334960938	459.9597167968751	135.1209106445313	-1881.697998046875	403.6331787109376	148.9859008789063	-1885.119995117188	353.2126464843751	94.22081756591798	-1919.922119140625	403.152557373047	168.2488250732422	-1831.973022460938	731.3181762695314	794.5690917968752	-2501.921142578125	722.1013183593751	767.9929809570314	-2447.900146484375	718.2004394531251	709.5291137695314	-2504.91748046875	695.1807250976564	686.3487548828126	-2453.153564453125	670.5648193359376	297.3118591308594	-2724.466064453125	674.3317260742189	264.8179626464844	-2681.884765625	664.8284912109376	240.0056304931641	-2724.55126953125	654.4093017578126	209.4897003173829	-2678.03125	603.8457641601564	103.960433959961	-2822.840576171875	633.5196533203126	67.33556365966798	-2827.712646484375	576.1402587890626	64.20598602294923	-2822.8056640625	585.2340087890626	47.83058547973634	-2597.982177734375	686.8489990234376	25.5091896057129	-2645.71875	
